PathFileType	4	(X/Y/Z)	pose_F01_0-74.trc
DataRate	CameraRate	NumFrames	NumMarkers	Units	OrigDataRate	OrigDataStartFrame	OrigNumFrames
30	30	9	21	m	30	61	74
Frame#	Time	CHip			RHip			RKnee			RAnkle			RBigToe			RSmallToe			RHeel			LHip			LKnee			LAnkle			LBigToe			LSmallToe			LHeel			Neck			Nose			RShoulder			RElbow			RWrist			LShoulder			LElbow			LWrist			
		X1	Y1	Z1	X2	Y2	Z2	X3	Y3	Z3	X4	Y4	Z4	X5	Y5	Z5	X6	Y6	Z6	X7	Y7	Z7	X8	Y8	Z8	X9	Y9	Z9	X10	Y10	Z10	X11	Y11	Z11	X12	Y12	Z12	X13	Y13	Z13	X14	Y14	Z14	X15	Y15	Z15	X16	Y16	Z16	X17	Y17	Z17	X18	Y18	Z18	X19	Y19	Z19	X20	Y20	Z20	X21	Y21	Z21	
61	2.033333333333333	-0.26030504789323355	1.8750989433361116	-0.4714701700944702	-0.2740794104543531	1.869007780452916	-0.3972351929582417	-0.27736750036406516	1.7284436978852358	-0.3807369003479947													-0.2427728451169701	1.8813850879968375	-0.539477317833472	-0.23326535480977287	1.7348861178756512	-0.5775025973444357	-0.20689033234948076	1.587819218579876	-0.6163856768760749	-0.19955020561990344	1.5541750241272998	-0.6920390963213591	-0.19314338346393797	1.5639312241763512	-0.7038518209421967	-0.20621317841538114	1.5768456310420216	-0.5901256260953054	-0.2679549829483039	2.0491115857800053	-0.46190613838604744	-0.291355296812012	2.1107580357680553	-0.49222662647339993	-0.2849072593347209	2.0402623977191054	-0.3551602467991849	-0.2803387861109248	1.944998513781196	-0.30183209186492205	-0.28492212710079956	1.864363534508712	-0.23925334656798286	-0.2468592484901077	2.0545995633673297	-0.556658782946519	-1.5080699059800617	1.8761840410518034	0.7649194404867544	-0.22138631247798346	1.8906014118977446	-0.6270875889572914
62	2.066666666666667	-0.2608920225865266	1.8789592380598508	-0.4752173114071688	-0.27375898274944793	1.8746362127895404	-0.3981599152382987	-0.27736750036406516	1.7284436978852358	-0.3807369003479947													-0.2426405250122311	1.8854970516235807	-0.5400794364371669	-0.23526677356320788	1.7389598218183084	-0.5842876790193204	-0.20663352440796348	1.5888917207228221	-0.6169049731553351	-0.1994783321794025	1.5539038516471073	-0.6920201560688464	-0.19218764783139416	1.5636387705242474	-0.7007343161891464	-0.2087243736501814	1.576425884728615	-0.5920220130424605	-0.26791591983795854	2.0491917239688897	-0.46199550102861375	-0.2861907164079863	2.1213673545355154	-0.5117236373281633	-0.28703526748102715	2.0431985806699493	-0.3620613762697177	-0.28252246231345013	1.9440211554604636	-0.3078925254649019	-0.2840529699472233	1.8652093430111056	-0.24438319999800454	-0.2448286360621517	2.054546013477756	-0.5587097361399076	-0.23075371867618966	1.9710179982400629	-0.592301107427901	-0.22103869316483918	1.894166952074203	-0.6277202352156012
63	2.1	-0.26095769271889374	1.8768195074591785	-0.475238024551662	-0.27192677806126164	1.8719037219821708	-0.3999739109773809	-0.27736750036406516	1.7284436978852358	-0.3807369003479947													-0.24139113928290903	1.8846489820560677	-0.545131335526495	-0.23625892975774837	1.7395848075458737	-0.5877144931338256	-0.20685246158946852	1.5902849260761172	-0.6168026622385772	-0.19727695335794668	1.5540894959628782	-0.6942872010497436	-0.192986543600721	1.563497876579037	-0.7039864878075544	-0.20772145074858264	1.5771856528724122	-0.5971806871540304	-0.2660562268063901	2.0493246314999656	-0.4641667551962689	-0.2811059783361965	2.1279615081023433	-0.5226217956716973	-0.28614142339412696	2.0446430654731453	-0.36729750220156787	-0.2846563543578739	1.947806398708384	-0.31499832554669516	-0.2860536456523515	1.866434085966192	-0.25946362987588295	-0.24476103674306596	2.0546851857670254	-0.5588098953943179	-0.2287624283438677	1.9713907425373556	-0.5943650500537434	-0.2190654922247408	1.8957701586921694	-0.6301989532948865
64	2.1333333333333333	-0.261692085716783	1.8797340796895452	-0.4788765343747571	-0.27480304009666495	1.876120919570222	-0.41016170382540834	-0.27736750036406516	1.7284436978852358	-0.3807369003479947													-0.24321063611451044	1.8873629090117103	-0.551754079482777	-0.23572733745381189	1.736597294821546	-0.5966470208519535	-0.20692119887984103	1.5938092617725585	-0.6171992056203878	-0.19732490913710724	1.5543049826912925	-0.6942727315546819	-0.19113153965046356	1.5624713501520069	-0.705555156502113	-0.20881212791179585	1.5811502586110697	-0.6005231704911159	-0.2668797639654706	2.0506035575753394	-0.46719294966782243	-0.2779959158844685	2.1317924245692113	-0.530072890183195	-0.2854407657931827	2.045077263616921	-0.3727182735578069	-0.2892544251109096	1.9459183906046078	-0.32782414427391576	-0.29751088488483435	1.8548063936210881	-0.28868991941948935	-0.2425909618049911	2.0558965701834246	-0.5608726113491428	-0.2286027694293474	1.9735739741804181	-0.5947310435330495	-0.21770791801808087	1.897494809121123	-0.6358501205715889
65	2.1666666666666665	-0.25991008858376663	1.8813622516746524	-0.4811933718613018	-0.27592582520476716	1.8774848916585647	-0.4137523867182113	-0.2736919171120041	1.7311601166184138	-0.39437341471732834													-0.24234903263347085	1.8886505191546221	-0.5488307837271241	-0.23458391799734277	1.7368260792367194	-0.6019318737256253	-0.2067448644857072	1.5925045088937109	-0.617467470280389	-0.19735794907981213	1.5542956024966648	-0.6942873532593877	-0.19091176966966766	1.5639215381302958	-0.7061383991195187	-0.21049773668090116	1.5815271174626826	-0.5991669515643231	-0.2650574243833479	2.05191563689488	-0.46988946166050416	-0.27401185863524674	2.1332186666319877	-0.5349939944944567	-0.2863904562663681	2.047596838487368	-0.3763173651746571	-0.2947731095757496	1.9498707500777601	-0.3450101806343972	-0.3030711800049773	1.8646069177250706	-0.3123791637204307	-0.2386134024999097	2.0560751135282915	-0.5652151802185955	-0.2264293379767643	1.9754740992442799	-0.5970638126240109	-0.217571861226324	1.899730621795472	-0.6360224820682264
66	2.2	-0.2623660568945316	1.8824708636574103	-0.4821254672504807	-0.2766775483572715	1.8788319287658277	-0.4169240202830145	-0.27308665743648436	1.730728664583045	-0.392707386675394													-0.243901956434544	1.8895827486121854	-0.546761856283441	-0.23085317293054908	1.7402053943564977	-0.6021440930298251	-0.2069127499505102	1.5936955161953568	-0.6171678522144175	-0.1972759844670028	1.5541187901177786	-0.6941956347941174	-0.19043229580820414	1.5636880801709756	-0.7021315207594276	-0.20794030732553903	1.5813035605433148	-0.5972651571274968	-0.26500805854990767	2.0506758834280747	-0.4694827203273114	-0.2719676004484108	2.133292659576179	-0.5370989633099716	-0.28640772902485967	2.047570816780047	-0.3764289066365324	-0.29594104437239277	1.9542260514278542	-0.3490986215754315	-0.3107720563231635	1.8697807411721237	-0.32777947232575955	-0.2386298451891255	2.0550909011765253	-0.5654471455658033	-0.2265938027546819	1.9737150039195113	-0.5970442295914062	-0.21554515356974915	1.8979799816978715	-0.6383496484114178
67	2.2333333333333334	-0.26083410428196135	1.888236651431106	-0.48547128395336264	-0.2762277678034696	1.8814118362296983	-0.4231677556370609	-0.2724813977609646	1.730297212547676	-0.3910413586334597													-0.2450461271903034	1.8934836709773186	-0.5592189183697099	-0.2332768963619584	1.73769443282005	-0.5991270707566636	-0.20473626896274924	1.5907229933117821	-0.6190474704156047	-0.19730478856860414	1.5541958053707323	-0.6942305794242185	-0.19111253311873677	1.562385381212634	-0.7054797944247981	-0.20762698186832435	1.5800586084928707	-0.5976075219106036	-0.26406722344395706	2.0521175212514264	-0.47508400268479833	-0.26994334932644165	2.1343621758464955	-0.5390051543250314	-0.2855428549667796	2.0488181979213893	-0.3816694399381812	-0.2969177360608172	1.954232451197329	-0.35189765439903803	-0.32510365970699096	1.8740891765080616	-0.354143612608213	-0.2366283176340081	2.0551751534687828	-0.5674987819793551	-0.22631552582296993	1.9735501318637507	-0.5969069698243779	-0.2111524403859785	1.8986172255529914	-0.6430397180369344
68	2.2666666666666666	-0.2589025899116405	1.8858165552345187	-0.4873212966240844	-0.274149522217134	1.8808726633041692	-0.4251368198921158	-0.27187613808544486	1.7298657605123071	-0.3893753305915253													-0.24314021445702955	1.8908167239715015	-0.561124844628288	-0.23008428416304083	1.7396806359848986	-0.5984048284870541	-0.20684436810187518	1.590657612327206	-0.6168161114392677	-0.19728510481601072	1.5542942738478713	-0.6943424220090245	-0.19109267780030365	1.562418041452574	-0.7056038003157658	-0.20797177883257503	1.578435257924071	-0.5971278795662004	-0.26399629442075123	2.052102519504144	-0.4751730018764636	-0.26795263172848555	2.1331464209918867	-0.5405871754476559	-0.28565753035490715	2.0476533623362814	-0.3818417315342768	-0.2969238935407273	1.9622083645255854	-0.3537764704031897	-0.32819760208559035	1.8881592895712258	-0.3663840722086625	-0.23650407378819938	2.055092479021802	-0.5675583122745751	-0.2242461539936927	1.9734753818520612	-0.5989423202117585	-0.20890259433882852	1.898920419705635	-0.6453760731808438
69	2.3	-0.25990799224069056	1.8863642068121111	-0.4904015528478224	-0.275296226153555	1.8825087034046633	-0.42851228372410927	-0.27127087840992514	1.7294343084769384	-0.38770930254959096													-0.24604821741509736	1.8910757281422204	-0.5621442050815063	-0.2292837856884177	1.744809089318316	-0.5869315614935446	-0.2057668552471148	1.5890709409888941	-0.6137961612779652	-0.19502755000934432	1.5541124168932858	-0.696441465243101	-0.19075048128912894	1.563526428782635	-0.706069743708086	-0.20775441076053747	1.5762277532493814	-0.5885771877029208	-0.26205034395716587	2.0509010054666237	-0.4769721939834702	-0.26797820112541443	2.1320325320162747	-0.5408244865975669	-0.2859311784601954	2.0479164241039616	-0.39025789416181944	-0.2968442017323998	1.9635363491172626	-0.35386046684779554	-0.3283125018882353	1.8937737689066059	-0.37572147497184777	-0.23657143367504532	2.0540410272834295	-0.5677267598423347	-0.22431055881215894	1.9725574847596534	-0.5989603772492981	-0.20670057049473745	1.8992292051426651	-0.6476091840970881
